<?xml version="1.0" standalone="no"?>
<!DOCTYPE svg PUBLIC "-//W3C//DTD SVG 20010904//EN"
 "http://www.w3.org/TR/2001/REC-SVG-20010904/DTD/svg10.dtd">
<svg version="1.0" xmlns="http://www.w3.org/2000/svg"
 width="556.000000pt" height="556.000000pt" viewBox="0 0 556.000000 556.000000"
 preserveAspectRatio="xMidYMid meet">
<metadata>
Created by potrace 1.14, written by Peter Selinger 2001-2017
</metadata>
<g transform="translate(0.000000,556.000000) scale(0.100000,-0.100000)"
fill="#000000" stroke="none">
<path d="M2697 3748 c-26 -51 -47 -99 -47 -106 0 -7 31 -52 69 -100 38 -48 71
-96 73 -106 1 -10 -6 -24 -18 -32 -20 -13 -26 -10 -94 55 -40 38 -78 67 -85
64 -7 -2 -41 -59 -74 -125 l-61 -121 72 -94 c181 -234 188 -244 177 -264 -5
-11 -18 -19 -28 -19 -10 0 -72 54 -139 120 -66 66 -125 120 -131 120 -5 0 -18
-12 -29 -27 -31 -45 -192 -373 -192 -392 0 -9 8 -26 18 -37 25 -27 31 -46 20
-66 -10 -20 -38 -24 -55 -7 -27 27 -50 -6 -151 -209 -57 -114 -103 -212 -103
-219 1 -6 11 -15 23 -19 26 -8 226 -7 239 2 6 3 7 14 4 25 -11 35 23 35 60 -1
l33 -32 271 0 c272 0 301 4 301 36 0 6 -32 52 -71 101 -39 50 -75 98 -80 107
-12 22 -2 45 22 51 16 4 53 -27 170 -144 118 -118 155 -149 176 -149 183 -3
396 -1 412 5 12 3 21 15 21 25 0 17 -45 81 -62 88 -5 2 -8 8 -8 13 0 5 -20 34
-45 65 -25 30 -45 58 -45 62 1 28 53 48 71 26 16 -19 36 -18 48 4 8 14 -61
159 -331 697 -187 374 -345 683 -352 687 -23 16 -33 5 -79 -84z"/>
<path d="M1808 2023 c-4 -7 -3 -196 1 -260 1 -17 6 -22 24 -20 12 1 25 6 29
11 4 6 15 6 30 -1 77 -35 150 55 114 141 -8 19 -25 40 -38 47 -27 15 -76 13
-96 -3 -11 -10 -14 -6 -12 22 4 64 1 70 -24 70 -14 0 -26 -3 -28 -7z"/>
<path d="M2379 1978 c-1 -122 3 -223 9 -230 4 -4 16 -5 28 -2 19 5 20 12 18
137 -1 73 -2 135 -3 140 0 4 -12 7 -26 7 -23 0 -25 -3 -26 -52z"/>
<path d="M2692 2012 c-22 -3 -23 -5 -20 -135 3 -139 1 -134 48 -128 5 0 10 37
12 82 l3 81 62 -85 c53 -73 65 -84 90 -82 l28 1 0 135 0 134 -25 -3 c-14 -2
-27 -6 -29 -8 -2 -2 -4 -38 -3 -79 1 -42 -3 -73 -7 -70 -5 3 -35 39 -65 80
-63 83 -62 82 -94 77z"/>
<path d="M1512 1882 c-29 -70 -52 -130 -52 -133 0 -3 12 -5 28 -5 19 1 31 9
41 29 13 27 18 29 66 29 53 0 60 -3 76 -30 11 -20 24 -28 43 -28 19 0 25 4 21
15 -3 8 -29 68 -57 133 -50 114 -52 118 -82 118 -30 0 -32 -4 -84 -128z"/>
<path d="M2173 1952 c-33 -5 -71 -46 -78 -84 -17 -88 66 -149 153 -112 34 14
35 15 17 34 -13 14 -22 17 -29 10 -22 -22 -86 -5 -86 23 0 4 26 8 58 7 98 -3
94 -5 87 38 -3 20 -14 45 -23 55 -21 20 -68 34 -99 29z"/>
<path d="M3095 1953 c-60 -11 -95 -53 -90 -110 6 -77 77 -119 148 -89 34 14
36 17 25 35 -9 15 -16 17 -29 10 -35 -18 -89 -5 -89 22 0 4 33 7 73 7 l72 -1
3 30 c5 52 -58 106 -113 96z"/>
<path d="M3554 1948 c-81 -21 -103 -135 -35 -185 25 -19 75 -24 109 -12 36 12
36 13 22 40 -9 15 -15 17 -30 9 -39 -21 -80 -8 -80 26 0 2 31 4 69 4 76 0 83
6 69 56 -13 50 -67 77 -124 62z"/>
<path d="M3830 1950 c-19 -3 -43 -10 -52 -16 -14 -8 -14 -12 -3 -27 11 -15 17
-17 35 -7 28 15 70 5 70 -16 0 -11 -6 -15 -20 -11 -30 8 -88 -11 -99 -31 -31
-58 42 -122 102 -91 14 8 22 8 26 1 4 -6 15 -10 26 -8 18 3 20 12 22 82 2 67
-1 82 -18 100 -25 27 -44 32 -89 24z"/>
<path d="M3290 1851 c0 -79 3 -100 15 -105 31 -11 44 4 43 52 -2 64 9 91 38
98 17 5 24 13 24 31 0 26 -7 27 -54 7 -14 -5 -17 -4 -12 4 5 8 -3 12 -23 12
l-31 0 0 -99z"/>
</g>
</svg>
